<?xml version="1.0" encoding="utf-8"?>
<!-- Generator: Adobe Illustrator 19.1.0, SVG Export Plug-In . SVG Version: 6.00 Build 0)  -->
<svg version="1.1" id="Layer_1" xmlns="http://www.w3.org/2000/svg" xmlns:xlink="http://www.w3.org/1999/xlink" x="0px" y="0px"
	 viewBox="-659.4 300.85 520.4 520.3" style="enable-background:new -659.4 300.85 520.4 520.3;" xml:space="preserve">
<style type="text/css">
	.st0{fill:#A09F9F;}
	.st1{fill:#6D6E71;}
</style>
<g class="mail">
	<polygon class="st0" points="-155.264,400.495 -208.379,453.613 -208.379,690.39 -590.022,690.39 -590.022,453.613 -643.136,400.494 -643.136,378.496 -643.138,378.496 -643.138,743.506 -155.264,743.506 -155.264,400.495 		"/>
	<path class="st1" d="M-643.136,378.494v0.002v21.998l53.114,53.119l190.821,190.821l190.821-190.821l53.115-53.118l0,0l0.001-0.001 v-22H-643.136z M-399.201,569.318l-137.706-137.706h275.412L-399.201,569.318z"/>
</g>
<g class="github">
	<path class="st0" d="M-399.2,821.15c-143.5,0-260.2-116.7-260.2-260.2s116.7-260.1,260.2-260.1S-139,417.55-139,560.95 S-255.8,821.15-399.2,821.15z M-399.2,353.95c-114.2,0-207.1,92.8-207.1,207s92.9,207.1,207.1,207.1s207.1-92.9,207.1-207.1 S-285,353.95-399.2,353.95z"/>
	<path class="st1" d="M-347.6,747.75c0-28.606,8.546-71.641-13.4-94.4c54.09-7.618,91.41-33.986,95.731-91.269 c1.085-14.382,0.046-28.906-4.962-42.529c-4.157-11.309-14.448-19.808-14.269-31.702c0.216-14.316,5.757-30.105-2.24-43.972 c-6.258-10.852-19.994-4.497-30.303-0.276c-12.237,5.011-22.528,15.598-35.676,14.217c-15.66-1.645-30.448-5.84-46.467-5.839 c-16.146,0.001-30.618,4.089-46.402,5.921c-13.198,1.532-23.337-9.22-35.521-14.189c-5.971-2.435-20.433-9.457-27.152-5.425 c-7.666,4.6-8.034,24.299-8.1,31.462c-0.118,12.875,4.899,19.665-1.656,30.634c-7.509,12.566-13.087,23.614-14.957,38.373 c-3.55,28.016,2.525,61.332,21.652,82.947c18.64,21.065,46.981,28.191,73.824,31.546c-9.895,18.407-10.394,31.845-33.514,33.523 c-34.814,2.527-37.13-33.719-65.305-42.482c-3.808-1.184-15.246-4.407-17.18,1.759c-1.893,6.036,7.732,9.286,11.196,11.99 c12.358,9.645,15.136,22.291,22.985,34.903c15.265,24.528,42.827,24.839,68.319,21.408c0,13.556,5.156,34.954-4.958,45.793 c36.881,10.523,76.66,10.52,113.539-0.007C-345.031,756.917-347.6,752.05-347.6,747.75z"/>
</g>
</svg>
