<?xml version="1.0" encoding="utf-8"?>
<!-- Generator: Adobe Illustrator 19.1.0, SVG Export Plug-In . SVG Version: 6.00 Build 0)  -->
<svg version="1.1" id="Layer_1" xmlns="http://www.w3.org/2000/svg" xmlns:xlink="http://www.w3.org/1999/xlink" x="0px" y="0px"
	 viewBox="-747.9 -66 724.8 733.6" style="enable-background:new -747.9 -66 724.8 733.6;" xml:space="preserve">
<style type="text/css">
	.st0{fill:none;}
	.st1{fill:#A0A09F;}
	.st2{fill:#6D6E70;}
</style>
<g>
	<path class="st0" d="M-518.5,425c-1.8-0.1-3.6-0.1-5.4-0.1c-59,0-112.3,34.1-132.1,55.5c-9.8,10.7-20.7,28.8-18.9,44.7
		c1.3,11.9,10,23.5,26,34.6c34.4,23.9,80,35.1,143.2,35.2h0.3c50.1,0,103.4-20.1,129.5-49c10.7-11.8,15.6-23.7,14.4-35.4
		C-367.7,447-466.9,426.8-518.5,425z"/>
	<path class="st1" d="M-306.7,573.8c5.8-57.6,7.7-138.6-3.2-204c-9.4-56.3-35.4-129.9-41.2-143.4c-1.7-3.9-1.5-3.4-2.7-6.3
		c-27.5-66.3-19.7-144-19.7-144c4.6-46.7,18-77.3,25.8-96.1c-26.5,18.9-46.2,42.5-56.8,70.3c-22.8,60-18.6,106,17.1,189.4
		c11.8,27.5,36.3,84.8,42.2,138.1c1.1,9.8,1.6,19.5,1.8,29.2c-11-8.7-23.6-16.6-37.8-23.5c-37.3-18.1-86.4-29.5-134.7-31.3
		c-80.4-3.1-157.3,39.5-193.6,78.8c-10.3,11.2-43.3,51.4-37.8,102c2.6,23.2,14.5,57,56.8,86.4c47.2,32.7,105.9,48,184.6,48.2h0.4
		c71.3,0,143.8-28.2,183.5-72.9 M-375.9,545.8c-26.1,28.9-79.4,49-129.5,49h-0.3c-63.3-0.1-108.8-11.3-143.2-35.2
		c-15.9-11.1-24.7-22.7-26-34.6c-1.8-15.9,9.1-34,18.9-44.7c19.8-21.4,73.1-55.5,132.1-55.5c1.8,0,3.6,0,5.4,0.1
		c51.6,1.9,150.8,22.1,157.1,85.4C-360.3,522.1-365.2,534-375.9,545.8z"/>
	<path class="st1" d="M-347.6-20"/>
	<path class="st2" d="M-347.7-19.9L-347.7-19.9C-347.7-19.9-347.6-19.9-347.7-19.9C-347.6-19.9-347.7-19.9-347.7-19.9z"/>
	<path class="st2" d="M-336.4,76.2c11.1-27.1,37.4-43.7,58.1-52.5c57.9-24.5,138.1-22.1,204.4,6.4C-55.4,38-34,29.4-26.1,10.9
		c2-4.6,2.9-9.4,3-14.1c0.1-14.2-8.2-27.7-22.1-33.6c-84.9-36.4-185.2-38.9-261.5-6.4c0,0-0.1,0.1-0.1,0.1
		c-15.3,6.5-28.5,14.5-40.8,23.3c0,0,0,0,0,0c-7.8,18.9-21.2,49.5-25.8,96.1c0,0-7.8,77.7,19.7,144c1.2,2.9,1,2.4,2.7,6.3
		c5.8,13.4,31.8,87.1,41.2,143.4c10.9,65.3,9.1,146.4,3.2,204c4.2-7.3,7.2-14,11-21.2c13.4-25.4,23.6-78.7,24.9-131.4
		c0.4-17.6-0.2-35-1.9-51.4c-1.8-16-4.4-31.1-7.6-45.1c-6.3-28.1-14.8-52.1-22.7-71.9c-3.9-9.9-7.7-18.7-11-26.4
		c-0.9-2.1-1.7-4.3-2.7-6.3c-1.5-3.2-1.7-6.1-1.7-8.9c0-0.5-0.4-1.2-0.3-1.7c0.6-6.5,4.6-11.7,8.5-15.5c2-1.9,4-3.4,5.6-4.6
		c6.6-4.7,13.4-8.6,20.5-11.9c14.1-6.5,29.1-10.3,44.1-12.1c30-3.6,60.1,0.5,84.1,6.1c6,1.4,11.6,2.9,16.8,4.4
		c8.6,2.5,15.7,2.7,21.7,1.5c17.9-3.6,25-19.3,26-21.7c1.8-4.3,2.6-8.8,2.6-13.2c0-4.4-0.8-8.8-2.3-13c-2.8-7.5-8.2-13.8-15.2-18.3
		c-0.7-0.5-1.2-1.2-2-1.6c-2.6-1.4-5.3-1.9-8-2.6c-1.3-0.4-2.6-1.1-3.9-1.3c-3.8-1.1-7.5-1.4-11.3-2.3c-32.6-8.2-65-12.2-95.4-11.1
		c-0.7,0-1.5-0.1-2.2-0.1c-34.6,1.5-66.6,9-93.5,21.9c-15.6,7.5-22.6-0.4-19.8-17.7C-341.5,90.7-339.5,83.9-336.4,76.2z"/>
</g>
</svg>
